<svg width="69" height="28" viewBox="0 0 69 28" fill="none" xmlns="http://www.w3.org/2000/svg">
    <path fill-rule="evenodd" clip-rule="evenodd" d="M2.086 27.167H0v.407h11.552V20.25h-.343s0 4.226-1.401 5.603c-1.183 1.19-2.429 1.283-4.453 1.283v-13.49s1.402-.094 2.087.595c1.058 1.064 1.183 2.441 1.183 4.35h.373V8.263h-.373c0 1.91-.094 3.286-1.183 4.35-.685.689-2.087.595-2.087.595V.407c2.024 0 2.99.125 4.173 1.283 1.37 1.377 1.4 5.603 1.4 5.603h.343V0H0v.407h2.086v26.76zM24.66.407v26.76c2.024 0 3.27-.125 4.452-1.283 1.37-1.377 1.402-5.602 1.402-5.602h.342v7.323H19.304v-.407h2.087V.377h-2.087V0h7.255v.407h-1.9zM43.217.407v26.76c2.024 0 3.27-.125 4.453-1.283 1.37-1.377 1.4-5.602 1.4-5.602h.343v7.323H37.862v-.407h2.086V.377h-2.086V0h7.254v.407h-1.899zM58.972 27.167h-2.086v.407h11.551V20.25h-.342s0 4.226-1.401 5.603c-1.183 1.189-2.429 1.283-4.453 1.283v-13.49s1.401-.094 2.086.595c1.06 1.064 1.184 2.441 1.184 4.35h.373V8.263h-.373c0 1.909-.094 3.286-1.184 4.35-.685.689-2.086.595-2.086.595V.407c2.024 0 2.99.125 4.172 1.283 1.37 1.377 1.402 5.603 1.402 5.603h.342V0H56.886v.407h2.086v26.76z" fill="#0E2564"/>
</svg>
