<svg width="1242" height="63" viewBox="0 0 1242 63" fill="none" xmlns="http://www.w3.org/2000/svg">
    <path fill-rule="evenodd" clip-rule="evenodd" d="M985.704 0c-16.774 0-34.697 8.258-34.697 31.434 0 23.176 17.923 31.434 34.697 31.434 16.776 0 34.696-8.258 34.696-31.434C1020.4 8.258 1002.48 0 985.704 0zm28.006 31.434c0 25.484-21.437 27.463-28.006 27.463-6.57 0-28.001-1.981-28.001-27.463 0-25.558 21.431-27.547 28.001-27.547 6.569 0 28.006 1.99 28.006 27.547zm-847.37 25.78h32.417v3.966h-39.032V1.703h39.026v3.973h-32.427v21.616h27.883v3.978H166.34v25.943zm83.938 3.962-28.427-48.962-.008 48.966h-4.286V1.703h5.063l30.762 52.85 28.667-52.848h5.272v59.47h-6.693v-48.4l-26.26 48.4h-4.09zm97.649-6.622L317.176 1.706h-5.07v59.477h4.282V12.221l28.427 48.962h4.096l26.258-48.401v48.401h6.697V1.703h-5.272l-28.667 52.85zm86.327-52.851h-4.469L402.067 61.18h4.512l6.799-14.492h36.709l7.324 14.5h6.904L434.631 2.455l-.377-.753zm13.814 41.015-32.867-.01L431 8.855l17.068 33.864zm148.793-11.437h27.848V27.31h-27.848V5.674h32.414V1.703h-39.027v59.49h39.032v-3.977h-32.419V31.282zm67.286-29.578h-17.903V61.18h17.903c16.818 0 34.788-7.826 34.788-29.779 0-21.896-17.97-29.698-34.788-29.698zM692.241 31.4c0 19.085-14.514 25.887-28.094 25.887h-11.301V5.596h11.305c7.503 0 14.309 2.047 19.169 5.761 5.918 4.529 8.915 11.27 8.915 20.042h.006zm110.246-.118h27.866V27.31h-27.877V5.674h32.414V1.703h-39.019v59.49H834.9v-3.977h-32.413V31.282zm264.163-29.58c15.41 0 24.61 7.944 24.61 21.246 0 9.627-4.73 16.71-13.33 20.042l15.4 18.177h-7.62l-14.1-16.532c-1.63.252-3.28.378-4.93.377h-19.11V61.18h-6.6V1.703h25.68zm0 39.344c8.66 0 17.91-4.754 17.91-18.097 0-15.662-12.53-17.353-17.91-17.353h-19.07v35.45h19.07zm63.99-35.372h-23.58V1.703h53.77v3.97h-23.58v55.503h-6.61V5.674zm104.74-3.967v25.597h-50.11V1.707h-6.61v59.477h6.61V31.275h50.11v29.906h6.61V1.703l-6.61.004zM530.6 1.704l19.886 49.736 20.055-49.736h5.23L551.84 60.916h-5.232l-19.595-48.853-19.599 48.85h-5.329l-23.828-59.21h7.716l20.075 49.741L524.46 5.651l-1.562-3.947h7.702zM920.419 51.44 900.533 1.704h-7.695l1.559 3.947-18.414 45.793-20.074-49.741h-7.714l23.826 59.21h5.335l19.598-48.85 19.595 48.853h5.231l23.93-59.212h-5.227L920.419 51.44zM746.326 27.29l33.262.022.049.621c.08.925.171 2.151.171 3.464 0 23.15-17.903 31.398-34.654 31.398-16.75 0-34.653-8.245-34.653-31.398C710.501 8.243 728.4 0 745.154 0c12.199 0 22.606 4.348 28.556 11.934l.838 1.068h-7.124l-.218-.256c-6.826-8-17.695-8.861-22.052-8.861-6.561 0-27.967 1.985-27.967 27.515 0 25.454 21.407 27.43 27.967 27.43 6.56 0 27.969-1.976 27.969-27.428v-.072h-26.797v-4.04zM49.46 10.953c2.944 2.7 5.258 5.932 6.8 9.496a27.403 27.403 0 0 1 .079 21.751c-1.527 3.559-3.82 6.79-6.74 9.498-6.544 6.065-15.89 9.295-27.028 9.336H0V1.703h22.346c11.16 0 20.536 3.199 27.114 9.25zm-7.04 40.314a28.236 28.236 0 0 0 4.985-9.235 34.647 34.647 0 0 0-.006-21.23 28.384 28.384 0 0 0-5.017-9.283C37.685 5.668 30.218 2.294 22.355 2.47H7.87v57.805h14.596c7.834.178 15.273-3.18 19.955-9.009zm80.649 7.073a46.404 46.404 0 0 0 5.708 2.848h-15.828a63.655 63.655 0 0 1-13.071-11.8c-3.615-4.39-5.606-8.318-5.606-11.061 0-2.66 2.91-4.67 6.273-6.995l.027-.019h.025a37.493 37.493 0 0 0 7.049-5.788c2.26-2.477 3.49-5.623 3.468-8.868.032-1.99-.332-3.969-1.073-5.837a11.806 11.806 0 0 0-3.193-4.46 14.598 14.598 0 0 0-5.272-2.849 24.77 24.77 0 0 0-7.313-.998H78.575v58.726h-7.892V1.706h23.584c4.013-.041 8.017.338 11.938 1.128a27.691 27.691 0 0 1 8.204 3.026c1.928 1.09 3.548 2.59 4.726 4.377 1 1.57 1.526 3.36 1.522 5.184-.055 3.556-1.883 6.888-4.951 9.021a47.62 47.62 0 0 1-9.772 5.344l-.034.014h-.014l-.029.01h-.018l-.058.027h-.024l-.016.007-.034.015a44.264 44.264 0 0 0-5.362 2.675c-1.572.993-2.303 1.917-2.303 2.912 0 1.29 1.373 3.473 3.989 6.312a86.376 86.376 0 0 0 9.562 8.652 98.164 98.164 0 0 0 11.476 7.93z" fill="#fff"/>
</svg>
