<svg width="120" height="28" viewBox="0 0 120 28" fill="none" xmlns="http://www.w3.org/2000/svg">
    <g clip-path="url(#xczwyn87fa)">
        <path d="M39.625 17.257 37.422 7.14l-2.116 10.117h4.319zM28.607 27.375 34.953.453h5.641l5.73 25.36V.454h8.02l2.997 17.772L60.955.453h7.404v26.922h-5.377V8.107l-4.407 19.268h-3.261L50.907 8.02v19.355H41.3l-1.058-5.895H34.6l-1.322 5.895h-4.672zm-11.105 0V.453h5.376v21.995h5.2v4.927H17.502zM16.355 9.867h-4.408c.425-5.172-2.67-5.441-2.816-5.454h-.004c-3.967.175-3.702 9.413-3.702 9.413.176 10.294 3.261 9.15 3.261 9.15 3.967.176 3.173-5.63 3.173-5.63H8.687V13.21h7.933v14.077h-2.292l-.705-2.991c-1.586 3.782-5.993 3.43-5.993 3.43-8.727-.264-7.58-15.22-7.58-15.22C.665-.25 8.862.014 8.862.014c8.286-.439 7.493 9.854 7.493 9.854zm92.989-5.19v7.742c5.2.791 4.759-3.52 4.759-3.52.353-5.366-4.759-4.223-4.759-4.223zm10.224 3.254s1.058 4.663-3.614 7.919l3.878 11.437h-5.552l-2.997-10.294h-1.851v10.294h-5.289V.365h7.845s7.404-.615 7.58 7.567zM97.622 20.337s.529 2.815-2.556 2.99h-.53c-3.084-.175-2.555-2.99-2.555-2.99V.452h-5.2V18.49s-1.234 9.854 7.58 9.502h.881c8.814.352 7.58-9.502 7.58-9.502V.453h-5.2v19.883zM77.438 23.24c1.939-.088 2.291-2.991 2.291-2.991.353-.88.176-10.822.088-10.734-.176-3.87-1.85-4.487-2.467-4.575-.617.088-2.292.616-2.469 4.575 0 0-.088 9.854.177 10.734 0 0 .44 2.903 2.292 2.99h.088zm0-23.139C78.76.013 85.81.366 85.81 13.826c0 0 .705 14.868-8.373 14.077-8.991.88-8.374-14.077-8.374-14.077C69.064.366 76.115.013 77.438.101z" fill="#0E2564"/>
    </g>
    <defs>
        <clipPath id="xczwyn87fa">
            <path fill="#fff" d="M0 0h120v28H0z"/>
        </clipPath>
    </defs>
</svg>
