<svg width="14" height="14" viewBox="0 0 14 14" fill="none" xmlns="http://www.w3.org/2000/svg">
    <path fill-rule="evenodd" clip-rule="evenodd" d="M4.113.042C4.86.008 5.097 0 6.999 0c1.9 0 2.139.008 2.883.045.745.034 1.254.153 1.698.325.466.176.89.452 1.239.808.356.349.632.772.808 1.239.173.445.291.954.325 1.699.034.746.043.986.043 2.886 0 1.9-.008 2.14-.042 2.886-.034.744-.152 1.254-.325 1.698-.176.467-.451.89-.807 1.24-.35.356-.772.632-1.24.807-.445.175-.954.291-1.699.326-.746.033-.982.041-2.884.041-1.901 0-2.14-.008-2.887-.04-.745-.036-1.254-.154-1.697-.327a3.44 3.44 0 0 1-1.24-.807 3.452 3.452 0 0 1-.807-1.242c-.173-.445-.291-.954-.325-1.7C.008 9.139 0 8.9 0 7s.008-2.14.042-2.886c.034-.745.152-1.254.325-1.698.18-.461.414-.851.805-1.24.39-.39.781-.629 1.242-.808.445-.173.954-.291 1.699-.325zm5.715 1.26c-.739-.034-.96-.041-2.83-.041v.001c-1.869 0-2.09.007-2.828.041-.683.03-1.054.145-1.301.24-.327.128-.56.28-.805.525a2.172 2.172 0 0 0-.524.804c-.095.247-.21.616-.24 1.299-.034.739-.041.96-.041 2.828 0 1.87.007 2.091.04 2.83.031.681.146 1.052.241 1.3.127.326.28.56.524.805.226.232.5.411.805.523.247.095.618.21 1.3.241.737.034.963.041 2.83.041 1.866 0 2.087-.007 2.828-.04.682-.032 1.053-.146 1.3-.242.326-.127.56-.278.804-.523.245-.245.397-.479.524-.805.095-.247.21-.618.24-1.3.035-.738.042-.963.042-2.83 0-1.866-.007-2.088-.041-2.828-.031-.683-.145-1.053-.241-1.3a2.172 2.172 0 0 0-.524-.805 2.173 2.173 0 0 0-.805-.523c-.246-.095-.616-.21-1.298-.241z" fill="#fff"/>
    <path fill-rule="evenodd" clip-rule="evenodd" d="M3.47 6.999c0-1.96 1.57-3.559 3.529-3.594a3.595 3.595 0 0 1 0 7.188 3.594 3.594 0 0 1-3.53-3.594zm1.196 0A2.332 2.332 0 1 0 9.33 7a2.332 2.332 0 0 0-4.665-.001z" fill="#fff"/>
    <circle cx="10.735" cy="3.263" r=".84" fill="#fff"/>
</svg>
