<svg width="373" height="20" viewBox="0 0 373 20" fill="none" xmlns="http://www.w3.org/2000/svg">
<path fill-rule="evenodd" clip-rule="evenodd" d="M296.029 0C290.991 0 285.608 2.6216 285.608 9.97906C285.608 17.3365 290.991 19.9581 296.029 19.9581C301.066 19.9581 306.449 17.3365 306.449 9.97906C306.449 2.6216 301.066 0 296.029 0ZM304.438 9.97906C304.438 18.0691 298.002 18.6974 296.029 18.6974C294.056 18.6974 287.619 18.0685 287.619 9.97906C287.619 1.86553 294.056 1.2339 296.029 1.2339C298.002 1.2339 304.438 1.86568 304.438 9.97906ZM49.9557 18.1629H59.6911V19.4221H47.969V0.540541H59.6894V1.802H49.9507V8.66425H58.3246V9.9269H49.9557V18.1629ZM75.164 19.4209L66.6268 3.87732L66.6244 19.4221H65.337V0.540541H66.8576L76.0962 17.3187L84.7056 0.541139H86.2889V19.4208H84.2788V4.05582L76.3923 19.4209H75.164ZM104.49 17.3187L95.255 0.541589H93.7324V19.4232H95.0184V3.87957L103.556 19.4232H104.786L112.672 4.05777V19.4232H114.683V0.540541H113.099L104.49 17.3187ZM130.416 0.540541H129.074L120.749 19.4221H122.105L124.147 14.8216H135.171L137.371 19.4245H139.444L130.529 0.779684L130.416 0.540541ZM134.565 13.5614L124.694 13.5584L129.439 2.81069L134.565 13.5614ZM179.25 9.93065H187.614V8.66979H179.25V1.80125H188.985V0.540541H177.265V19.4262H188.987V18.1637H179.25V9.93065ZM199.458 0.540541H194.081V19.4221H199.458C204.509 19.4221 209.906 16.9377 209.906 9.96868C209.906 3.01734 204.509 0.540541 199.458 0.540541ZM207.895 9.96808C207.895 16.0271 203.536 18.1863 199.458 18.1863H196.064V1.77639H199.459C201.712 1.77639 203.757 2.42629 205.216 3.60554C206.993 5.0431 207.893 7.18341 207.893 9.96793L207.895 9.96808ZM241.005 9.93065H249.373V8.66979H241.001V1.80125H250.736V0.540541H239.018V19.4262H250.739V18.1637H241.005V9.93065ZM320.339 0.540541C324.966 0.540541 327.728 3.06211 327.728 7.28494C327.728 10.3414 326.309 12.59 323.725 13.6475L328.353 19.4182H326.061L321.828 14.1698C321.339 14.2498 320.844 14.2898 320.349 14.2896H314.61V19.4221H312.625V0.540541H320.339ZM320.339 13.0305C322.939 13.0305 325.718 11.5211 325.718 7.28494C325.717 2.31326 321.956 1.77639 320.339 1.77639H314.612V13.0305H320.339ZM339.557 1.80125H332.474V0.540541H348.623V1.80125H341.541V19.4211H339.557V1.80125ZM371.012 0.541888V8.66799H355.962V0.541888H353.978V19.4235H355.962V9.9287H371.011V19.4226H372.996V0.540541L371.012 0.541888ZM159.351 0.54099L165.323 16.3303L171.346 0.54084H172.917L165.73 19.3383H164.158L158.274 3.82956L152.388 19.3374H150.787L143.631 0.540541H145.948L151.977 16.3315L157.507 1.79406L157.038 0.54099H159.351ZM276.422 16.3302L270.45 0.54084H268.139L268.607 1.79391L263.077 16.3315L257.048 0.540541H254.732L261.887 19.3374H263.489L269.375 3.82956L275.26 19.3383H276.831L284.018 0.54084H282.448L276.422 16.3302ZM224.138 8.66339L234.128 8.67043L234.142 8.86779C234.166 9.16129 234.193 9.55048 234.193 9.96723C234.193 17.3164 228.817 19.9351 223.786 19.9351C218.756 19.9351 213.379 17.3175 213.379 9.96723C213.379 2.61696 218.755 0 223.786 0C227.45 0 230.575 1.38036 232.362 3.78857L232.614 4.12774H230.474L230.409 4.04628C228.359 1.50689 225.095 1.23331 223.786 1.23331C221.816 1.23331 215.387 1.86344 215.387 9.96828C215.387 18.0489 221.816 18.6763 223.786 18.6763C225.756 18.6763 232.186 18.0489 232.186 9.96887V9.94596H224.138V8.66339ZM14.854 3.47705C15.7382 4.33421 16.4332 5.36039 16.8959 6.49189C17.8047 8.70582 17.8132 11.1771 16.9197 13.397C16.4612 14.5265 15.7724 15.5525 14.8954 16.4121C12.9305 18.3374 10.1236 19.363 6.77852 19.3759H0V0.540541H6.71086C10.0627 0.540541 12.8784 1.55612 14.854 3.47705ZM12.7399 16.2752C13.4137 15.3937 13.9207 14.4008 14.2368 13.3437C14.9034 11.1445 14.9028 8.80271 14.2351 6.6039C13.9169 5.54102 13.4065 4.54279 12.7284 3.65675C11.3176 1.79925 9.07517 0.728352 6.7136 0.784327H2.36358V19.1354H6.74706C9.09971 19.1918 11.334 18.1255 12.7399 16.2752ZM36.9604 18.5207C37.5089 18.8619 38.0818 19.164 38.6745 19.4247L33.9211 19.425C32.441 18.3615 31.1197 17.1005 29.9955 15.6785C28.9098 14.2849 28.3118 13.0381 28.3118 12.1671C28.3118 11.3228 29.1856 10.6845 30.1958 9.94675L30.204 9.94073H30.2115C30.9916 9.41603 31.7027 8.79884 32.3284 8.1032C33.0071 7.31666 33.3765 6.31816 33.3701 5.28798C33.3796 4.65612 33.2704 4.02794 33.0478 3.43487C32.8427 2.89741 32.5146 2.41318 32.0889 2.01933C31.6336 1.60966 31.0935 1.30111 30.5055 1.11471C29.7955 0.894121 29.0539 0.787079 28.3092 0.797701H23.5979V19.441H21.2276V0.541486H28.3106C29.5155 0.528533 30.7182 0.648739 31.8957 0.899827C32.7661 1.08244 33.599 1.40717 34.3596 1.86045C34.9387 2.20624 35.4252 2.68255 35.7788 3.24979C36.0792 3.74813 36.2371 4.31662 36.2359 4.89549C36.2195 6.0244 35.6704 7.08212 34.7491 7.75953C33.8448 8.43986 32.8593 9.00951 31.8143 9.45585L31.8042 9.46019H31.8L31.7913 9.46379H31.7857L31.7684 9.47202H31.7612L31.7562 9.47442L31.7461 9.47906C31.1896 9.72456 30.6514 10.0084 30.1357 10.3284C29.6638 10.6435 29.4441 10.9367 29.4441 11.2526C29.4441 11.6621 29.8567 12.3551 30.6422 13.2564C31.5279 14.2412 32.4878 15.1594 33.5138 16.0032C34.5988 16.9234 35.7507 17.7648 36.9604 18.5207Z" fill="#0E2564"/>
</svg>
