<svg width="15" height="15" viewBox="0 0 15 15" fill="none" xmlns="http://www.w3.org/2000/svg">
    <path fill-rule="evenodd" clip-rule="evenodd" d="m10.2 9.345 4.212 4.212a.302.302 0 0 1 0 .427l-.428.428a.302.302 0 0 1-.427 0l-4.212-4.213a5.71 5.71 0 0 1-3.605 1.28A5.746 5.746 0 0 1 0 5.74 5.746 5.746 0 0 1 5.74 0a5.746 5.746 0 0 1 5.74 5.74 5.71 5.71 0 0 1-1.28 3.605zM1.207 5.74a4.536 4.536 0 0 0 4.532 4.53 4.536 4.536 0 0 0 4.53-4.53 4.536 4.536 0 0 0-4.53-4.532A4.536 4.536 0 0 0 1.208 5.74z" fill="#0E2564"/>
</svg>
