<svg width="14" height="14" viewBox="0 0 14 14" fill="none" xmlns="http://www.w3.org/2000/svg">
    <path fill-rule="evenodd" clip-rule="evenodd" d="M13.837 2.454a5.48 5.48 0 0 1-1.63.466 2.95 2.95 0 0 0 1.248-1.637 5.576 5.576 0 0 1-1.803.719 2.783 2.783 0 0 0-2.072-.936c-1.568 0-2.839 1.326-2.839 2.961 0 .232.025.458.074.675-2.36-.124-4.45-1.303-5.851-3.094a3.051 3.051 0 0 0-.384 1.49c0 1.026.501 1.932 1.261 2.463a2.737 2.737 0 0 1-1.285-.37l-.001.037c0 1.435.978 2.632 2.277 2.903a2.716 2.716 0 0 1-1.282.051c.361 1.177 1.41 2.033 2.652 2.056A5.545 5.545 0 0 1 0 11.464a7.79 7.79 0 0 0 4.351 1.33c5.221 0 8.076-4.512 8.076-8.423 0-.128-.003-.256-.009-.384a5.869 5.869 0 0 0 1.42-1.533z" fill="#fff"/>
</svg>
