<svg width="107" height="28" viewBox="0 0 107 28" fill="none" xmlns="http://www.w3.org/2000/svg">
    <path fill-rule="evenodd" clip-rule="evenodd" d="M23.234 23.532c1.925 2.378 4.899 4.12 8.007 4.12 3.32 0 6.314-1.887 8.297-4.466 2.02-2.647 3.012-5.986 3.012-9.297 0-3.456-1.087-6.959-3.272-9.664-1.896-2.348-4.851-4.11-7.93-4.11-3.35 0-6.363 1.859-8.365 4.457-2.03 2.647-3.012 5.987-3.012 9.307 0 3.455 1.068 6.949 3.263 9.653zM31.26.51c5.168 0 6.535 9.548 6.535 13.369 0 3.82-1.367 13.378-6.535 13.378-5.178 0-6.535-9.548-6.535-13.378S26.073.51 31.26.51zM0 .684h9.365v.269h-2.3l6.987 19.133 5.9-19.133h-2.32v-.27h5.053v.27h-2.233l-8.316 26.449L2.464.952H0V.685zM63.05.222v9.191h-.211c-.395-1.81-.953-3.57-1.925-5.169C59.76 2.378 57.921.28 55.524.28c-5.505 0-6.005 9.865-6.005 13.628 0 3.368.269 6.843 1.491 10 .857 2.213 2.098 3.3 4.399 3.3 1.828 0 3.773-.923 4.745-2.511.25-.414.27-.876.27-1.347V16.246h-2.407v-.279h8.807v.28h-2.06v10.625h-.183c-.52-.866-1.338-1.434-2.387-1.434-.76 0-1.501.27-2.165.635l-.597.328c-1.347.596-2.637 1.03-4.13 1.03-6.833 0-10.47-7.286-10.47-13.33 0-4.419 1.684-9.144 5.264-11.906C51.703.953 53.647.039 55.716.039c.809 0 1.608.25 2.359.548l.549.212c.625.231 1.308.452 1.982.452.837 0 1.588-.548 2.233-1.03h.212zM65.678.684h9.394v.269h-2.493v20.395c0 3.195 3.292 5.14 6.17 5.14 3.099 0 5.707-2.157 5.707-5.324V.953H81.51v-.27h24.244v9.462h-.183c-.279-2.503-.76-5.073-2.483-7.027-1.742-1.973-4.11-2.165-6.545-2.165h-2.627v12.166c.538.057 1.087.096 1.636.096 3.301 0 4.158-2.271 4.302-5.082h.241v10.674h-.241c-.413-2.55-1.54-5.284-4.533-5.284-.472 0-.934.029-1.405.067v13.012h3.937c2.04 0 4.071-.885 5.514-2.31 1.232-1.212 2.089-2.79 2.387-4.494.164-.953.241-1.925.289-2.888h.212v9.962H87.305v-.27h2.204V.953H84.85v20.29c0 4.196-3.984 6.053-7.719 6.053-4.225 0-8.883-2.05-8.883-6.88V.952h-2.57v-.27z" fill="#0E2564"/>
</svg>
