<svg width="144" height="29" viewBox="0 0 144 29" fill="none" xmlns="http://www.w3.org/2000/svg">
    <g clip-path="url(#316h5d6zla)">
        <path d="m14.84 28 2.498-24.058c.14-1.233.387-1.44.81-1.44h.245v-1.37h-4.046v1.37h.247c.562 0 .844.378.774 1.44l-1.443 14.394L12.27 3.942c-.14-1.13.14-1.44.774-1.44h.07v-1.37h-5.63v1.37h.283c.527 0 .527.207.633 1.44l.422 3.668L7.521 19.26 6.044 3.942c-.177-1.233.07-1.44.633-1.44h.07v-1.37h-5.7v1.37h.281c.598 0 .633.207.774 1.44L4.636 28h3.66l1.442-12.372L11.216 28h3.624zm24.244-15.764c0-1.68 0-2.262 1.09-2.262.74 0 .74.274.74 1.68v14.358c0 .515-.176.617-.458.617h-.175V28h5.665v-1.37h-.247c-.387 0-.492-.137-.492-.685V10.9c0-2.468-.528-3.428-3.026-3.428-1.443 0-2.498.446-3.167 1.987-.282-1.37-1.02-1.987-2.956-1.987-1.583 0-2.428.48-3.061 1.987V7.472l-4.856.377v1.37h.211c.317 0 .563.24.563.995V25.84c0 .617-.14.788-.563.788h-.21V28h5.418v-1.37h-.211c-.282 0-.352-.102-.352-.514v-13.88c0-1.678-.035-2.261 1.055-2.261.74 0 .74.274.74 1.68v14.358c0 .515-.177.617-.423.617h-.246V28h5.56v-1.37h-.071c-.387 0-.528-.137-.528-.685V12.236zM78.67 28h6.791v-1.37h-.458c-.597 0-.773-.24-.773-1.44V14.84h3.589v10.35c0 1.2-.176 1.44-.74 1.44h-.527V28h6.756v-1.37h-.563c-.599 0-.704-.24-.704-1.44V3.942c0-1.233.105-1.44.704-1.44h.563v-1.37h-6.756v1.37h.528c.563 0 .739.207.739 1.44v9.287h-3.59V3.942c0-1.233.177-1.44.774-1.44h.459v-1.37H78.67v1.37h.598c.563 0 .74.207.74 1.44v21.933c0 .583-.177.755-.74.755h-.598V28zm51.304 0h5.383v-1.37h-.176c-.351 0-.387-.103-.387-.515v-13.88c0-1.678.036-2.261 1.126-2.261.809 0 .809.274.809 1.68v14.358c0 .515-.14.617-.386.617h-.247V28h5.7v-1.37h-.246c-.387 0-.457-.137-.457-.685V10.9c0-2.468-.634-3.428-3.097-3.428-1.618 0-2.533.48-3.202 1.987V.721l-5.172.411v1.37h.528c.351 0 .563.207.563.96v22.379c0 .617-.106.788-.563.788h-.176V28zm-107.534.24c4.505 0 5.138-3.667 5.138-10.384 0-6.751-.669-10.384-5.138-10.384-4.468 0-5.137 3.633-5.137 10.384 0 6.717.634 10.384 5.137 10.384zM56.537 28h5.419v-1.37h-.247c-.316 0-.316-.103-.316-.515v-13.88c0-1.678 0-2.261 1.125-2.261.775 0 .81.274.81 1.68v14.358c0 .515-.21.617-.422.617h-.247V28h5.7v-1.37h-.246c-.387 0-.492-.137-.492-.685V10.9c0-2.468-.598-3.428-3.097-3.428-1.583 0-2.533.48-3.13 1.987V7.472l-5.209.377v1.37h.563c.317 0 .563.24.563.995V25.84c0 .617-.14.788-.563.788h-.21V28h-.001zm49.931.24c1.865 0 2.569-.89 2.955-1.953.352 1.576.739 1.953 2.85 1.953 2.463 0 2.78-1.44 2.745-4.25h-1.161c0 2.023-.035 2.228-.423 2.228-.351 0-.351-.171-.351-1.302V11.585c0-2.708-.915-4.113-4.152-4.113-2.569 0-5.102.754-4.962 3.461.071 1.235.564 2.537 1.901 2.468 1.231-.069 1.794-.72 1.794-1.714 0-.685-.528-1.816-1.372-2.433.316-.137.809-.275 1.618-.275.916 0 1.091.686 1.091 1.988v3.736c-4.68 1.542-5.665 2.159-5.665 7.882 0 4.113 1.021 5.655 3.132 5.655zm-8.058 0c3.483 0 4.292-1.028 4.117-6.648h-1.443c0 4.455-.141 4.797-1.76 4.797-1.934 0-1.934-.822-1.934-8.464v-.617h5.629c0-7.71-.879-9.836-4.61-9.836-3.377 0-5.137 2.023-5.137 10.521.001 8.088 1.338 10.282 5.138 10.247zm-46.764 0c3.413 0 4.363-1.028 4.222-6.648h-1.442c0 4.455-.211 4.797-1.865 4.797-2.076 0-1.97-.822-1.97-8.464v-.617h5.453c0-7.71-.738-9.836-4.398-9.836-3.413 0-5.172 2.023-5.172 10.521 0 8.088 1.336 10.282 5.172 10.247zm64.147-.24h5.63v-1.37h-.422c-.353 0-.493-.172-.493-.72V.72l-5.243.412v1.37h.598c.352 0 .493.138.493.686v22.79c0 .514-.036.652-.282.652h-.281V28zm-41.1.24c2.57 0 3.907-1.645 3.907-4.112 0-5.792-5.384-9.15-5.384-13.297 0-1.269.458-1.646 1.373-1.646 1.336 0 1.548.549 1.794 2.502l.21 1.92h1.549V7.642H76.91c-.07.755-.246 1.029-.317.926-.387-.446-1.302-1.097-2.815-1.097-2.252 0-4.222.994-4.222 4.25 0 5.072 5.348 8.944 5.348 12.817 0 1.68-.386 1.953-1.618 1.953-1.232 0-1.548-.548-1.794-3.084l-.177-1.68h-1.618V28h1.407c.106-.686.353-1.13.563-.925.457.514.95 1.165 3.026 1.165zm47.785-4.49c0 3.256.493 4.49 3.8 4.49 2.323 0 2.851-.89 2.851-3.392v-3.394h-1.408v3.565c0 1.2-.105 1.336-.562 1.336-.458 0-.563-.137-.563-1.2V9.186h2.568V7.643h-2.533v-5.14h-1.443c-1.021 4.558-1.9 5.14-3.272 5.14h-.387v1.508h.95v14.6h-.001zM22.44 26.493c-.984 0-.984-.548-.984-8.636 0-8.122 0-8.67.984-8.67.986 0 .986.548.986 8.67s0 8.636-.986 8.636zM68.853 8.501c3.518-2.537 4.222-4.456 3.06-6.204-.633-.96-2.075-1.576-3.13-.72-1.268 1.029-.951 2.811 1.407 3.84-.423.479-1.408 1.405-2.217 2.193l.88.89zm39.304 17.34c-.845 0-.845-.857-.845-3.564 0-4.935 0-5.586 1.689-6.477v8.465c0 1.267-.175 1.576-.844 1.576zM50.59 15.868c.07-6.408.176-6.717 1.091-6.717.88 0 .81.343.81 6.717h-1.9zm46.8 0c.106-6.408.176-6.717 1.09-6.717.916 0 .774.343.774 6.717H97.39z" fill="#0E2564"/>
    </g>
    <defs>
        <clipPath id="316h5d6zla">
            <path fill="#fff" d="M0 0h143.03v28.606H0z"/>
        </clipPath>
    </defs>
</svg>
