<svg width="16" height="16" viewBox="0 0 16 16" fill="none" xmlns="http://www.w3.org/2000/svg">
    <path fill-rule="evenodd" clip-rule="evenodd" d="M4.47.827C5.283.791 5.542.782 7.609.782c2.065 0 2.325.008 3.134.05.81.035 1.363.165 1.845.352.508.191.968.49 1.348.878.387.38.686.84.877 1.347.19.484.318 1.037.354 1.847.037.811.047 1.071.047 3.137 0 2.065-.01 2.325-.046 3.137-.036.81-.165 1.363-.353 1.846a3.74 3.74 0 0 1-.878 1.348c-.38.387-.84.686-1.347.877-.484.19-1.037.317-1.847.355-.811.036-1.068.044-3.135.044-2.067 0-2.327-.008-3.138-.044-.81-.038-1.363-.166-1.845-.355a3.738 3.738 0 0 1-1.347-.877 3.753 3.753 0 0 1-.878-1.35C.21 12.89.082 12.335.046 11.526.009 10.715 0 10.455 0 8.39c0-2.066.009-2.326.046-3.137.036-.81.165-1.363.353-1.847.196-.5.45-.925.875-1.347.424-.423.85-.683 1.35-.878C3.108.992 3.661.864 4.471.827zm6.213 1.37c-.803-.037-1.044-.045-3.075-.045v.002c-2.033 0-2.274.007-3.076.044-.741.034-1.145.158-1.413.262a2.361 2.361 0 0 0-.875.57c-.267.266-.431.52-.57.874-.103.268-.228.67-.261 1.411-.037.804-.045 1.043-.045 3.075s.008 2.273.045 3.075c.033.742.157 1.145.261 1.414.139.355.303.609.57.875.245.253.544.447.875.57.268.103.672.227 1.413.261.801.037 1.046.044 3.075.044s2.27-.007 3.075-.044c.742-.034 1.144-.158 1.413-.262.355-.138.608-.303.874-.57.267-.265.432-.52.57-.874.103-.268.228-.672.262-1.414.037-.8.044-1.046.044-3.075s-.008-2.27-.044-3.075c-.034-.741-.158-1.144-.262-1.412a2.36 2.36 0 0 0-.57-.875 2.362 2.362 0 0 0-.874-.57c-.269-.103-.67-.228-1.412-.261z" fill="#0E2564"/>
    <path fill-rule="evenodd" clip-rule="evenodd" d="M3.771 8.39a3.907 3.907 0 0 1 3.837-3.907 3.908 3.908 0 0 1 0 7.813A3.907 3.907 0 0 1 3.77 8.39zm1.3 0a2.535 2.535 0 1 0 5.071.001 2.535 2.535 0 0 0-5.07-.001z" fill="#0E2564"/>
    <circle cx="11.669" cy="4.328" fill="#0E2564" r=".913"/>
</svg>
