<svg width="16" height="16" viewBox="0 0 16 16" fill="none" xmlns="http://www.w3.org/2000/svg">
    <path fill-rule="evenodd" clip-rule="evenodd" d="M15.823 3.45a5.956 5.956 0 0 1-1.773.506 3.208 3.208 0 0 0 1.357-1.78 6.061 6.061 0 0 1-1.959.781 3.026 3.026 0 0 0-2.253-1.016c-1.704 0-3.085 1.44-3.085 3.218 0 .252.027.499.08.734-2.565-.135-4.838-1.416-6.36-3.363a3.317 3.317 0 0 0-.418 1.619c0 1.116.545 2.1 1.371 2.678a2.976 2.976 0 0 1-1.397-.402l-.001.04c0 1.56 1.064 2.86 2.476 3.155a2.952 2.952 0 0 1-1.394.056c.392 1.279 1.532 2.21 2.883 2.235a6.028 6.028 0 0 1-4.568 1.333 8.468 8.468 0 0 0 4.73 1.446c5.675 0 8.778-4.905 8.778-9.157 0-.14-.003-.279-.01-.417a6.38 6.38 0 0 0 1.543-1.667" fill="#0E2564"/>
</svg>
